<svg width="334.61" height="235.57" xmlns="http://www.w3.org/2000/svg">
 <title>资源 3</title>

 <g>
  <title>Layer 1</title>
  <path id="svg_1" fill="#4f80ff" d="m103.19,175.1l13.62,10l-69.51,50.47l26.62,-81.9l13.65,10l-9.7,29.84l25.32,-18.41zm231.42,-85.1l-181.53,0l-11.67,16.08l193.2,-16.08zm-210.77,-38l0,-52l-29.18,89.82l11.62,16.23l17.56,-54.05z"/>
  <path id="svg_2" fill="#223256" d="m123.84,52l0,-52l29.24,90l-11.67,16.08l-17.57,-54.08zm28.42,87.45l17.56,54.05l-120.36,-87.45l56.82,0l-11.62,-16.23l0,0.16l-94.66,0l200.38,145.59l-48.12,-96.12"/>
 </g>
</svg>